<svg width="150" height="133" viewBox="0 0 150 133" fill="none" xmlns="http://www.w3.org/2000/svg">
<path d="M98.3439 51.3713L15.1734 51.3713C6.79334 51.3713 0 58.1446 0 66.5C0 74.8554 6.79334 81.6288 15.1734 81.6288L98.3439 81.6287L72.7237 107.174C66.7981 113.082 66.7981 122.661 72.7237 128.569C78.6492 134.477 88.2565 134.477 94.182 128.569L145.556 77.3462C148.556 74.3543 150.038 70.4212 149.999 66.5C150.038 62.5789 148.556 58.6457 145.556 55.6538L94.182 4.43111C88.2565 -1.47703 78.6492 -1.47703 72.7237 4.43111C66.7981 10.3393 66.7981 19.9182 72.7237 25.8264L98.3439 51.3713Z" fill="black"/>
</svg>
