<svg width="29" height="29" viewBox="0 0 29 29" fill="none" xmlns="http://www.w3.org/2000/svg">
<path d="M18.3433 20.7053L18.6749 20.3806C20.6292 18.4664 23.7695 18.4786 25.7088 20.4079L27.1235 21.8153C28.2922 22.978 28.2922 24.863 27.1235 26.0257M8.55859 10.8738L8.8754 10.5537C10.8048 8.60396 10.7924 5.4711 8.8478 3.53647L6.99901 1.69719C6.06462 0.767604 4.54968 0.767604 3.61529 1.69719M18.4603 20.6473C18.4603 20.6473 17.112 21.9598 12.1232 16.9967C7.1345 12.0336 8.57175 10.8097 8.57175 10.8097M27.6596 25.535C27.6596 25.535 19.7789 33.3051 7.66605 21.2545C-4.44682 9.20395 3.64977 1.6491 3.64977 1.6491" stroke="white" stroke-width="2"/>
</svg>
